<svg xmlns="http://www.w3.org/2000/svg" width="12" height="12" fill="none"><path fill="#A0AEC0" fill-rule="evenodd" d="M2.008 8.92a.75.75 0 0 1 .216.602 8.23 8.23 0 0 1-.299 1.499c1.046-.242 1.685-.522 1.976-.67a.75.75 0 0 1 .533-.055A6.06 6.06 0 0 0 6 10.5c2.997 0 5.25-2.106 5.25-4.5S8.997 1.5 6 1.5.75 3.606.75 6c0 1.101.463 2.123 1.258 2.92Zm-.37 2.93a41.087 41.087 0 0 1-.225.042 11 11 0 0 1-.31.054c-.148.024-.263-.132-.204-.271a7.31 7.31 0 0 0 .183-.478c0-.003.002-.006.003-.008.186-.54.337-1.16.392-1.739C.557 8.527 0 7.32 0 6 0 3.1 2.686.75 6 .75S12 3.1 12 6s-2.686 5.25-6 5.25c-.613 0-1.204-.08-1.76-.23-.39.198-1.23.557-2.601.83Z" clip-rule="evenodd"/></svg>