<svg xmlns="http://www.w3.org/2000/svg" width="7" height="12" fill="none"><path fill="#8E98A3" d="M1.167 2.411c.644 0 1.166-.535 1.166-1.196 0-.66-.522-1.196-1.166-1.196C.522.019 0 .554 0 1.215c0 .66.522 1.196 1.167 1.196Zm0 4.785c.644 0 1.166-.535 1.166-1.196 0-.66-.522-1.196-1.166-1.196C.522 4.804 0 5.339 0 6c0 .66.522 1.196 1.167 1.196Zm0 4.785c.644 0 1.166-.535 1.166-1.196 0-.66-.522-1.196-1.166-1.196-.645 0-1.167.535-1.167 1.196 0 .66.522 1.196 1.167 1.196Zm4.666-9.57C6.477 2.411 7 1.876 7 1.215 7 .555 6.478.019 5.833.019c-.644 0-1.167.535-1.167 1.196 0 .66.523 1.196 1.167 1.196Zm0 4.785C6.477 7.196 7 6.661 7 6c0-.66-.522-1.196-1.167-1.196-.644 0-1.167.535-1.167 1.196 0 .66.523 1.196 1.167 1.196Zm0 4.785c.644 0 1.167-.535 1.167-1.196 0-.66-.522-1.196-1.167-1.196-.644 0-1.167.535-1.167 1.196 0 .66.523 1.196 1.167 1.196Z"/></svg>