<svg xmlns="http://www.w3.org/2000/svg" width="36" height="36" fill="none"><path fill="#FF7885" d="M18 0C8.075 0 0 8.075 0 18c.015 2.32.466 4.614 1.328 6.75a17.66 17.66 0 0 0 3.696 5.697l-2.795 2.347c-.278.233-.48.551-.578.91-.098.359-.087.74.03 1.093a1.8 1.8 0 0 0 .628.872c.29.216.636.331.992.331H18c9.925 0 18-8.075 18-18S27.925 0 18 0Z"/><path fill="url(#a)" d="M18 0C8.075 0 0 8.075 0 18c.015 2.32.466 4.614 1.328 6.75a17.66 17.66 0 0 0 3.696 5.697l-2.795 2.347c-.278.233-.48.551-.578.91-.098.359-.087.74.03 1.093a1.8 1.8 0 0 0 .628.872c.29.216.636.331.992.331H18c9.925 0 18-8.075 18-18S27.925 0 18 0Z"/><path fill="#fff" d="M18.861 25.094c-2.37 0-4.274-.693-5.715-2.078C11.716 21.62 11 19.803 11 17.56c0-2.215.702-4.03 2.105-5.442C14.51 10.706 16.319 10 18.534 10c1.632 0 3.054.406 4.266 1.217 1.221.811 2.1 1.914 2.639 3.308.537 1.395.67 2.926.396 4.594H14.828c.246.839.748 1.513 1.504 2.024.766.5 1.686.752 2.762.752 1.659 0 3.121-.534 4.388-1.6l1.764 2.502c-1.668 1.531-3.796 2.297-6.385 2.297Zm-4.06-8.737h7.506c-.2-.966-.634-1.74-1.3-2.324-.655-.583-1.471-.875-2.447-.875-.956 0-1.777.292-2.46.875-.684.584-1.117 1.358-1.3 2.324Z"/><defs><linearGradient id="a" x1="36" x2="0" y1="0" y2="36" gradientUnits="userSpaceOnUse"><stop stop-color="#C865FF"/><stop offset="1" stop-color="#5A6EFF"/></linearGradient></defs></svg>