<svg xmlns="http://www.w3.org/2000/svg" width="128" height="36" fill="none"><path fill="#FF7885" d="M18 0C8.075 0 0 8.075 0 18c.015 2.32.466 4.614 1.328 6.75a17.66 17.66 0 0 0 3.696 5.697l-2.795 2.347c-.278.233-.48.551-.578.91-.098.359-.087.74.03 1.093a1.8 1.8 0 0 0 .628.872c.29.216.636.331.992.331H18c9.925 0 18-8.075 18-18S27.925 0 18 0Z"/><path fill="url(#a)" d="M18 0C8.075 0 0 8.075 0 18c.015 2.32.466 4.614 1.328 6.75a17.66 17.66 0 0 0 3.696 5.697l-2.795 2.347c-.278.233-.48.551-.578.91-.098.359-.087.74.03 1.093a1.8 1.8 0 0 0 .628.872c.29.216.636.331.992.331H18c9.925 0 18-8.075 18-18S27.925 0 18 0Z"/><path fill="#fff" d="M18.861 25.094c-2.37 0-4.274-.693-5.715-2.078C11.716 21.62 11 19.803 11 17.56c0-2.215.702-4.03 2.105-5.442C14.51 10.706 16.319 10 18.534 10c1.632 0 3.054.406 4.266 1.217 1.221.811 2.1 1.914 2.639 3.308.537 1.395.67 2.926.396 4.594H14.828c.246.839.748 1.513 1.504 2.024.766.5 1.686.752 2.762.752 1.659 0 3.121-.534 4.388-1.6l1.764 2.502c-1.668 1.531-3.796 2.297-6.385 2.297Zm-4.06-8.737h7.506c-.2-.966-.634-1.74-1.3-2.324-.655-.583-1.471-.875-2.447-.875-.956 0-1.777.292-2.46.875-.684.584-1.117 1.358-1.3 2.324Z"/><path fill="url(#b)" d="M52.861 25.094c-2.37 0-4.274-.693-5.714-2.078C45.716 21.62 45 19.803 45 17.56c0-2.215.702-4.03 2.105-5.442C48.51 10.706 50.319 10 52.533 10c1.632 0 3.054.406 4.266 1.217 1.221.811 2.1 1.914 2.639 3.308.537 1.395.67 2.926.396 4.594H48.828c.246.839.747 1.513 1.504 2.024.766.5 1.686.752 2.762.752 1.659 0 3.121-.534 4.388-1.6l1.764 2.502c-1.668 1.531-3.796 2.297-6.385 2.297Zm-4.06-8.737h7.506c-.2-.966-.634-1.74-1.3-2.324-.655-.583-1.471-.875-2.447-.875-.957 0-1.777.292-2.46.875-.684.584-1.117 1.358-1.3 2.324Zm12.92 8.368v-14.37h3.706l.027 1.887c1.24-1.404 2.73-2.105 4.47-2.105.958 0 1.81.21 2.558.629a4.663 4.663 0 0 1 1.818 1.777c1.34-1.604 3.067-2.406 5.182-2.406 1.722 0 3.103.524 4.142 1.572 1.048 1.048 1.572 2.447 1.572 4.197v8.819h-3.923v-7.93c0-.975-.246-1.741-.739-2.297-.492-.556-1.18-.834-2.064-.834-.912 0-1.654.324-2.229.97-.565.648-.847 1.491-.847 2.53v7.56h-3.87v-7.93c0-.974-.246-1.74-.738-2.296-.492-.556-1.171-.834-2.037-.834-.911 0-1.659.324-2.242.97-.574.648-.861 1.491-.861 2.53v7.56h-3.924Zm26.033 0v-14.37h3.705l.028 1.887c1.24-1.404 2.73-2.105 4.47-2.105.957 0 1.81.21 2.557.629a4.662 4.662 0 0 1 1.818 1.777c1.34-1.604 3.067-2.406 5.182-2.406 1.723 0 3.103.524 4.142 1.572 1.049 1.048 1.573 2.447 1.573 4.197v8.819h-3.924v-7.93c0-.975-.246-1.741-.738-2.297-.493-.556-1.181-.834-2.065-.834-.911 0-1.654.324-2.228.97-.565.648-.848 1.491-.848 2.53v7.56h-3.87v-7.93c0-.974-.245-1.74-.737-2.296-.493-.556-1.172-.834-2.038-.834-.911 0-1.658.324-2.242.97-.574.648-.861 1.491-.861 2.53v7.56h-3.924Zm27.673 6.576c-.966 0-1.887-.16-2.762-.479l.807-3.295a4.87 4.87 0 0 0 1.6.246c.674 0 1.221-.16 1.64-.478.429-.31.784-.848 1.067-1.613l.123-.26-6.358-15.067h4.28l2.693 6.973 1.148 3.172.998-3.172 2.352-6.973h4.184l-6.112 16.776c-1.039 2.78-2.926 4.17-5.66 4.17Z"/><defs><linearGradient id="a" x1="36" x2="0" y1="0" y2="36" gradientUnits="userSpaceOnUse"><stop stop-color="#C865FF"/><stop offset="1" stop-color="#5A6EFF"/></linearGradient><linearGradient id="b" x1="86.494" x2="68.04" y1="-13.139" y2="34.078" gradientUnits="userSpaceOnUse"><stop stop-color="#BD67FF"/><stop offset="1" stop-color="#616DFF"/></linearGradient></defs></svg>